<svg xmlns="http://www.w3.org/2000/svg" width="22" height="22" viewBox="0 0 22 22">
  <path id="codepen" d="M16.632,11.978V10.022L15.171,11Zm1.17,1.095a.576.576,0,0,1-.006.076l0,.026-.01.049-.009.028a.406.406,0,0,1-.016.043l-.013.027q-.009.02-.019.039l-.017.027a.523.523,0,0,1-.073.092l-.024.023-.033.027-.027.02-.009.007L11.325,17.7a.584.584,0,0,1-.649,0L4.459,13.557l-.009-.007a.549.549,0,0,1-.06-.048l-.024-.023-.029-.031-.019-.026a.539.539,0,0,1-.061-.1l-.013-.028q-.009-.021-.016-.043l-.009-.027a.469.469,0,0,1-.009-.05L4.2,13.148a.576.576,0,0,1-.005-.076V8.927A.531.531,0,0,1,4.2,8.851l0-.025.01-.049.009-.028a.526.526,0,0,1,.11-.2l.028-.031L4.39,8.5a.568.568,0,0,1,.06-.048l.009-.007L10.675,4.3a.585.585,0,0,1,.649,0l6.217,4.144.009.007.028.02.032.028a.281.281,0,0,1,.024.023.5.5,0,0,1,.073.092l.017.028q.01.019.019.039l.013.028c.006.015.011.029.016.043l.009.028a.47.47,0,0,1,.009.049l.006.025a.568.568,0,0,1,.005.076ZM11,0A11,11,0,1,0,22,11,11,11,0,0,0,11,0m0,9.618L8.933,11,11,12.384,13.067,11Zm.585,3.78v2.727l4.58-3.053L14.119,11.7Zm-5.749-.326,4.58,3.052V13.4L7.882,11.7ZM16.165,8.928l-4.58-3.052V8.6l2.534,1.7ZM10.415,8.6V5.876L5.836,8.928,7.882,10.3Zm-5.047,1.42v1.956L6.829,11Z"/>
</svg>
