<svg xmlns="http://www.w3.org/2000/svg" width="22" height="22" viewBox="0 0 22 22">
  <path id="globe" d="M11,0A11,11,0,1,0,22,11,11,11,0,0,0,11,0Zm0,2.75a8.163,8.163,0,0,1,2.585.523c-.578.55-1.237,1.045-1.127,1.54s1.9.358,1.9,1.375C14.355,6.93,13.2,7.15,14,8c.962.962-1.76,2.695-1.815,3.96-.083,2.282,2.31,2.668,4.207,2.668,1.155,0,1.458.55,1.375,1.21a8.273,8.273,0,0,1-6.792,3.438,7.885,7.885,0,0,1-2.915-.6c.605-1.21-.77-3.6-2.062-4.373-.633-.632-1.98-.385-2.75-.687a8.075,8.075,0,0,1-.523-2.31.486.486,0,0,1,.44-.248c.523,0,1.238,1.045,1.622.935.5-.11-2.035-3.6-.852-4.29.55-.33,1.65,1.072,1.293-.44-.33-1.4.99-.77,1.815-1.128.715-.3,1.237-1.128.357-1.622a2.94,2.94,0,0,1-.605-.523A8.162,8.162,0,0,1,11,2.778Zm6.352,3a9.1,9.1,0,0,1,1.21,1.98V7.81c-.11.193-.3.3-.6.605-.77.77-.88-.578-1.21-.853-.358-.33-1.65.055-1.815-.357-.193-.495,1.375-1.155,2.42-1.457Z"/>
</svg>
