<svg xmlns="http://www.w3.org/2000/svg" width="22" height="22" viewBox="0 0 22 22">
  <path id="linkedin" d="M18.743,18.748H15.485v-5.1c0-1.217-.025-2.784-1.7-2.784-1.7,0-1.958,1.325-1.958,2.694v5.195H8.572V8.25H11.7V9.681h.042a3.433,3.433,0,0,1,3.089-1.7c3.3,0,3.911,2.173,3.911,5v5.762ZM4.892,6.814A1.892,1.892,0,1,1,6.784,4.921,1.89,1.89,0,0,1,4.892,6.814ZM6.526,18.748H3.259V8.25H6.526ZM20.373,0H1.623A1.6,1.6,0,0,0,0,1.585v18.83A1.6,1.6,0,0,0,1.623,22H20.37A1.61,1.61,0,0,0,22,20.415V1.585A1.61,1.61,0,0,0,20.37,0Z"/>
</svg>
