<svg xmlns="http://www.w3.org/2000/svg" width="27.068" height="22" viewBox="0 0 27.068 22">
  <path id="twitter" d="M27.015,4.867a11.278,11.278,0,0,1-3.186.874A5.592,5.592,0,0,0,26.268,2.67a11.462,11.462,0,0,1-3.527,1.335A5.549,5.549,0,0,0,13.286,9.06,15.719,15.719,0,0,1,1.85,3.279,5.438,5.438,0,0,0,1.1,6.07a5.55,5.55,0,0,0,2.468,4.62A5.531,5.531,0,0,1,1.053,10v.068A5.552,5.552,0,0,0,5.5,15.507a5.635,5.635,0,0,1-2.495.1A5.567,5.567,0,0,0,8.2,19.456,11.128,11.128,0,0,1,1.32,21.831,11.779,11.779,0,0,1,0,21.755a15.784,15.784,0,0,0,8.523,2.491A15.673,15.673,0,0,0,24.31,8.474c0-.237,0-.474-.017-.711A11.2,11.2,0,0,0,27.068,4.89Z" transform="translate(0 -2.246)" fill="#fff"/>
</svg>
